<svg xmlns="http://www.w3.org/2000/svg" width="232.639" height="39.198" viewBox="0 0 232.639 39.198">
  <g id="tanti_1" transform="translate(-2.2 -5.5)">
    <path id="Path_1" data-name="Path 1" d="M48.435,26.9V33.21a3.419,3.419,0,0,0,3.49,3.624,2.817,2.817,0,0,1,2.953,2.953c0,1.745-1.208,2.685-3.088,2.685a8.767,8.767,0,0,1-8.86-8.86V21.4a3.366,3.366,0,1,0-6.712,0v8.994a2.7,2.7,0,0,1-3.759,2.685,2.3,2.3,0,0,1-1.745-2.282c0-3.624-.134-7.383,0-11.008C30.984,15.222,35.145,12,39.978,12a8.743,8.743,0,0,1,8.457,8.189c0,2.282,0,4.43,0,6.712h0" transform="translate(9.743 2.226)" fill="#fff"/>
    <path id="Path_2" data-name="Path 2" d="M45.534,18.739V11.356c0-1.879,1.074-3.088,2.819-2.953,1.745,0,2.819,1.208,2.819,3.088,0,2.014,0,2.014,2.014,2.014h7.249a2.649,2.649,0,0,1,2.953,2.819c0,1.745-.805,2.685-2.685,2.819H52.112c-.805,0-1.074.134-1.074,1.074.134,1.745,0,3.49,0,5.235a3.207,3.207,0,0,0,3.356,3.49,3.251,3.251,0,0,0,3.222-3.49A2.76,2.76,0,0,1,60.3,22.5a2.684,2.684,0,0,1,2.953,2.282,10.248,10.248,0,0,1-.268,3.49A8.865,8.865,0,0,1,53.32,34.58a8.7,8.7,0,0,1-7.92-8.457c.134-2.551.134-4.967.134-7.383Z" transform="translate(14.792 0.99)" fill="#fff"/>
    <path id="Path_3" data-name="Path 3" d="M34.176,26.2v4.161a2.677,2.677,0,0,1-2.819,2.819,2.575,2.575,0,0,1-2.685-2.819V22.712a4.937,4.937,0,0,0-4.161-4.967,5.147,5.147,0,0,0-5.5,3.088,4.748,4.748,0,0,0,2.014,6.041,6.293,6.293,0,0,0,2.819.805,2.713,2.713,0,0,1,2.551,3.759,2.667,2.667,0,0,1-2.685,1.879A10.347,10.347,0,0,1,13.1,22.846a10.615,10.615,0,0,1,7.115-10.2,10.764,10.764,0,0,1,12.216,3.893,9.885,9.885,0,0,1,1.879,5.772c0,1.208-.134,2.551-.134,3.893Z" transform="translate(3.732 2.253)" fill="#fff"/>
    <path id="Path_4" data-name="Path 4" d="M8.778,22.446v-10.2c0-.805-.134-.94-.94-.94H4.885A2.722,2.722,0,0,1,2.2,8.485,2.537,2.537,0,0,1,4.885,5.8H18.309a2.543,2.543,0,0,1,2.551,2.819,2.645,2.645,0,0,1-2.685,2.819,21.683,21.683,0,0,1-2.953,0c-.805,0-1.074.268-1.074,1.074V32.648a2.609,2.609,0,0,1-2.819,2.819,2.677,2.677,0,0,1-2.819-2.819c.268-3.49.268-6.846.268-10.2" transform="translate(0 0.103)" fill="#fff"/>
    <path id="Path_5" data-name="Path 5" d="M60.5,22.705V15.053A2.788,2.788,0,0,1,63.588,12.1a2.524,2.524,0,0,1,2.551,2.416V30.625a2.583,2.583,0,0,1-2.953,2.551A2.537,2.537,0,0,1,60.5,30.491V22.705Z" transform="translate(19.962 2.26)" fill="#fff"/>
    <path id="Path_6" data-name="Path 6" d="M63.49,12.346A3.439,3.439,0,0,1,60,8.99a3.49,3.49,0,0,1,6.981,0,3.531,3.531,0,0,1-3.49,3.356" transform="translate(19.791)" fill="#fff"/>
    <g id="Group_1" data-name="Group 1" transform="translate(94.021 14.897)">
      <path id="Path_7" data-name="Path 7" d="M70.6,33.039,78.52,12.5h2.953l8.457,20.539H86.843l-2.416-6.175H75.835l-2.282,6.175Zm5.907-8.457h6.981l-2.148-5.638c-.671-1.745-1.074-3.088-1.477-4.3a32.944,32.944,0,0,1-1.074,3.893Z" transform="translate(-70.6 -12.5)" fill="#fff"/>
      <path id="Path_8" data-name="Path 8" d="M96.1,31.6V29.453A5.325,5.325,0,0,1,91.4,32a4.6,4.6,0,0,1-2.416-.537,6.506,6.506,0,0,1-1.745-1.208,4.009,4.009,0,0,1-.805-1.879,11.63,11.63,0,0,1-.134-2.416V16.7h2.551v8.323a13.172,13.172,0,0,0,.134,2.685,2.672,2.672,0,0,0,1.074,1.611,3.082,3.082,0,0,0,1.879.537,3.939,3.939,0,0,0,2.148-.537,3.135,3.135,0,0,0,1.342-1.611,8.165,8.165,0,0,0,.4-2.953v-7.92h2.551v14.9H96.1Z" transform="translate(-65.224 -11.062)" fill="#fff"/>
      <path id="Path_9" data-name="Path 9" d="M104.046,30.754l.4,2.282a10.53,10.53,0,0,1-1.879.268,4.707,4.707,0,0,1-2.148-.4,2.369,2.369,0,0,1-1.074-1.208,7.948,7.948,0,0,1-.268-2.953V20.149H97.2V18.135h1.879V14.377L101.63,12.9v5.235h2.551v2.014H101.63v8.726a3.013,3.013,0,0,0,.134,1.342,1.853,1.853,0,0,0,.4.537c.134.134.537.134.805.134A2.308,2.308,0,0,1,104.046,30.754Z" transform="translate(-61.492 -12.363)" fill="#fff"/>
      <path id="Path_10" data-name="Path 10" d="M103.4,24.286c0-2.819.805-4.833,2.282-6.175a7.13,7.13,0,0,1,4.7-1.611,6.474,6.474,0,0,1,4.967,2.014,7.508,7.508,0,0,1,2.014,5.5,10.7,10.7,0,0,1-.805,4.564A5.854,5.854,0,0,1,114,31.132a6.649,6.649,0,0,1-3.624.94,6.774,6.774,0,0,1-5.1-2.014A8.283,8.283,0,0,1,103.4,24.286Zm2.685,0a6.558,6.558,0,0,0,1.208,4.3,3.966,3.966,0,0,0,6.175,0,6.558,6.558,0,0,0,1.208-4.3,6.161,6.161,0,0,0-1.208-4.161,3.966,3.966,0,0,0-6.175,0A5.929,5.929,0,0,0,106.085,24.286Z" transform="translate(-59.369 -11.13)" fill="#fff"/>
      <path id="Path_11" data-name="Path 11" d="M116,31.669v-14.9h2.282v2.148a4.741,4.741,0,0,1,1.879-1.745,5.676,5.676,0,0,1,2.685-.671,5.287,5.287,0,0,1,2.685.671,3.472,3.472,0,0,1,1.477,1.879,5.264,5.264,0,0,1,4.564-2.551,4.467,4.467,0,0,1,3.356,1.208,5.057,5.057,0,0,1,1.208,3.759v10.2h-2.551v-9.4a6.9,6.9,0,0,0-.268-2.148,1.8,1.8,0,0,0-.94-1.074,2.706,2.706,0,0,0-1.477-.4,3.437,3.437,0,0,0-2.551,1.074,4.555,4.555,0,0,0-1.074,3.356v8.591h-2.551V22a4.447,4.447,0,0,0-.671-2.551,2.356,2.356,0,0,0-2.014-.805,3.788,3.788,0,0,0-2.014.537,3.946,3.946,0,0,0-1.342,1.611,9.012,9.012,0,0,0-.4,3.088v7.786H116Z" transform="translate(-55.055 -11.13)" fill="#fff"/>
      <path id="Path_12" data-name="Path 12" d="M143.805,29.89a12.893,12.893,0,0,1-2.685,1.745,8.775,8.775,0,0,1-2.819.537,5.271,5.271,0,0,1-3.759-1.208,4.37,4.37,0,0,1-1.342-3.088,3.788,3.788,0,0,1,.537-2.014,4.787,4.787,0,0,1,1.342-1.477,4.707,4.707,0,0,1,1.879-.805,18.638,18.638,0,0,1,2.282-.4,42.894,42.894,0,0,0,4.564-.805V21.7a2.917,2.917,0,0,0-.671-2.148,4.4,4.4,0,0,0-2.819-.805,4.936,4.936,0,0,0-2.685.671,4.123,4.123,0,0,0-1.208,2.148l-2.416-.4a6.367,6.367,0,0,1,1.074-2.551,4.013,4.013,0,0,1,2.282-1.477,8.815,8.815,0,0,1,3.356-.537,10.135,10.135,0,0,1,3.088.4,4.321,4.321,0,0,1,1.745,1.074,3.514,3.514,0,0,1,.805,1.745,9.606,9.606,0,0,1,.134,2.282V25.46a32.01,32.01,0,0,0,.134,4.43,4.691,4.691,0,0,0,.671,1.745H144.61A2.363,2.363,0,0,1,143.805,29.89Zm-.268-5.638a17.584,17.584,0,0,1-4.161.94,5.391,5.391,0,0,0-2.148.537c-.4.268-.805.4-.94.805a2.165,2.165,0,0,0-.4,1.208,2.363,2.363,0,0,0,.805,1.745,3.555,3.555,0,0,0,2.282.671,5.141,5.141,0,0,0,2.551-.671,3.36,3.36,0,0,0,1.611-1.745,6.309,6.309,0,0,0,.4-2.551v-.94Z" transform="translate(-49.165 -11.096)" fill="#fff"/>
      <path id="Path_13" data-name="Path 13" d="M151.646,30.754l.4,2.282a10.53,10.53,0,0,1-1.879.268,4.707,4.707,0,0,1-2.148-.4,2.369,2.369,0,0,1-1.074-1.208,7.948,7.948,0,0,1-.268-2.953V20.149H144.8V18.135h1.879V14.377L149.23,12.9v5.235h2.551v2.014H149.1v8.726a3.013,3.013,0,0,0,.134,1.342,1.853,1.853,0,0,0,.4.537c.134.134.537.134.805.134A2.98,2.98,0,0,1,151.646,30.754Z" transform="translate(-45.193 -12.363)" fill="#fff"/>
      <path id="Path_14" data-name="Path 14" d="M151.7,15.453V12.5h2.551v2.953Zm0,17.586v-14.9h2.551v14.9H151.7Z" transform="translate(-42.831 -12.5)" fill="#fff"/>
      <path id="Path_15" data-name="Path 15" d="M166.439,26.3l2.416.268a5.964,5.964,0,0,1-2.148,4.027,6.561,6.561,0,0,1-4.161,1.477,6.678,6.678,0,0,1-4.967-2.014,8.283,8.283,0,0,1-1.879-5.772,10.007,10.007,0,0,1,.805-4.161,5.283,5.283,0,0,1,2.416-2.685,7.973,7.973,0,0,1,3.49-.94,6.523,6.523,0,0,1,4.027,1.208,5.427,5.427,0,0,1,2.014,3.49l-2.416.4a5.278,5.278,0,0,0-1.208-2.282,3.049,3.049,0,0,0-2.148-.805,3.888,3.888,0,0,0-3.088,1.342,6.558,6.558,0,0,0-1.208,4.3c0,2.014.4,3.49,1.208,4.3a3.624,3.624,0,0,0,2.953,1.342,3.045,3.045,0,0,0,2.416-.94A3.462,3.462,0,0,0,166.439,26.3Z" transform="translate(-41.461 -11.13)" fill="#fff"/>
      <path id="Path_16" data-name="Path 16" d="M166.4,27.239l2.551-.4a3.474,3.474,0,0,0,1.208,2.282,4.008,4.008,0,0,0,2.685.805,4.148,4.148,0,0,0,2.551-.671,2.321,2.321,0,0,0,.805-1.611,1.476,1.476,0,0,0-.805-1.342,7.956,7.956,0,0,0-2.551-.805,16.843,16.843,0,0,1-3.893-1.208,4.267,4.267,0,0,1-1.611-1.477A3.235,3.235,0,0,1,166.8,20.8a4.288,4.288,0,0,1,.4-1.879,4.2,4.2,0,0,1,1.208-1.477,4.48,4.48,0,0,1,1.611-.671,10.433,10.433,0,0,1,2.148-.268,7.461,7.461,0,0,1,3.088.537,5.852,5.852,0,0,1,2.014,1.342,5.075,5.075,0,0,1,.805,2.282l-2.416.4a2.494,2.494,0,0,0-.94-1.745,3.84,3.84,0,0,0-2.282-.671,3.551,3.551,0,0,0-2.416.537,2.046,2.046,0,0,0-.805,1.342,2.489,2.489,0,0,0,.268.94,2.408,2.408,0,0,0,.94.671c.268.134.94.268,2.282.671a24.857,24.857,0,0,1,3.759,1.208,3.946,3.946,0,0,1,1.611,1.342,3.66,3.66,0,0,1,.537,2.148,5.47,5.47,0,0,1-.671,2.416,4.035,4.035,0,0,1-2.148,1.745,7.963,7.963,0,0,1-3.088.671,7.234,7.234,0,0,1-4.43-1.208A7.584,7.584,0,0,1,166.4,27.239Z" transform="translate(-37.797 -11.13)" fill="#fff"/>
    </g>
  </g>
</svg>
